<?xml version="1.0" encoding="UTF-8"?>
<svg id="Layer_1" data-name="Layer 1" xmlns="http://www.w3.org/2000/svg" xmlns:xlink="http://www.w3.org/1999/xlink" viewBox="0 0 27 27">
  <defs>
    <style>
      .cls-1 {
        stroke: #b2d235;
        stroke-width: 2px;
      }

      .cls-1, .cls-2, .cls-3 {
        fill: none;
      }

      .cls-4 {
        fill: #fffbeb;
      }

      .cls-3 {
        clip-path: url(#clippath);
      }

      .cls-5 {
        fill: #4f943e;
      }
    </style>
    <clipPath id="clippath">
      <rect class="cls-2" x="0" y="0" width="27" height="27"/>
    </clipPath>
  </defs>
  <g class="cls-3">
    <path class="cls-4" d="m13.5,26c6.9,0,12.5-5.6,12.5-12.5S20.4,1,13.5,1,1,6.6,1,13.5s5.6,12.5,12.5,12.5"/>
    <circle class="cls-1" cx="13.5" cy="13.5" r="12.5"/>
    <path class="cls-5" d="m7.36,9.31c.21.11.31.26.33.49.04.52-.46.86-.92.63-.21-.1-.3-.24-.31-.49,0-.16,0-.22.06-.34.15-.33.51-.45.84-.28m1.97-.29c.48.24.51.9.06,1.13-.43.22-.94-.08-.94-.56,0-.24.18-.5.4-.59.11-.04.38-.03.48.02m-1.28-1.65c.18.09.29.2.35.37.1.3-.04.64-.32.77-.15.07-.41.07-.56,0-.14-.07-.22-.15-.3-.32-.11-.26-.06-.48.16-.7.22-.21.4-.24.67-.11m1.42-1.85c-1.9.15-3.61,1.71-3.98,3.66-.08.4-.07,1.1.01,1.51.18.92.64,1.75,1.34,2.44.46.46.91.7,1.96,1.05,1.19.41,1.66.65,2.12,1.13.46.47.62.83,1.07,2.34.25.85.38,1.23.5,1.47.41.82,1.16,1.53,2.15,2.03.61.31,1.05.43,1.76.49,1.19.1,2.28-.23,3.22-.95,1-.77,1.62-1.73,1.86-2.85.18-.82.12-1.77-.15-2.56-.32-.92-1.09-1.97-1.78-2.43-.54-.36-1.11-.59-2.55-1.02-1.15-.34-1.62-.6-1.98-1.08-.2-.27-.49-.88-.76-1.61-.29-.8-.47-1.22-.63-1.49-.39-.65-1.09-1.3-1.84-1.68-.53-.27-.99-.4-1.64-.45-.2-.02-.37-.03-.38-.03,0,0-.14.01-.28.02"/>
  </g>
  <line class="cls-1" x1="22.54" y1="4.46" x2="4.46" y2="22.54"/>
</svg>