<?xml version="1.0" encoding="UTF-8"?>
<svg id="Layer_1" data-name="Layer 1" xmlns="http://www.w3.org/2000/svg" xmlns:xlink="http://www.w3.org/1999/xlink" viewBox="0 0 27 27">
  <defs>
    <style>
      .cls-1 {
        stroke: #b2d235;
        stroke-width: 2px;
      }

      .cls-1, .cls-2, .cls-3 {
        fill: none;
      }

      .cls-4 {
        fill: #fffbeb;
      }

      .cls-3 {
        clip-path: url(#clippath);
      }

      .cls-5 {
        fill: #4f943e;
      }
    </style>
    <clipPath id="clippath">
      <rect class="cls-2" y="0" width="27" height="27"/>
    </clipPath>
  </defs>
  <g class="cls-3">
    <path class="cls-4" d="m13.5,26c6.9,0,12.5-5.6,12.5-12.5,0-6.9-5.6-12.5-12.5-12.5-6.9,0-12.5,5.6-12.5,12.5,0,6.9,5.6,12.5,12.5,12.5"/>
    <circle class="cls-1" cx="13.5" cy="13.5" r="12.5"/>
    <path class="cls-5" d="m13.3,3.42c-.61.56-1.2,1.59-1.37,2.38-.06.31-.1.99-.07,1.4.06.87.4,1.73.98,2.46.18.23.56.63.63.66.07.04.2-.07.51-.41.57-.64.96-1.38,1.12-2.14.09-.4.11-1.21.05-1.63-.15-1-.56-1.81-1.3-2.6-.16-.17-.3-.31-.31-.31s-.11.08-.22.18"/>
    <path class="cls-5" d="m8.82,8.85c-.13.02-.26.06-.29.09-.08.07-.09.22-.05.6.14,1.42.73,2.41,1.9,3.19.7.46,1.39.76,2.33,1.01.44.12.56.12.61.04.07-.12-.02-1.2-.14-1.82-.12-.61-.4-1.29-.67-1.66-.39-.52-1.05-1.01-1.65-1.24-.59-.22-1.45-.3-2.03-.21"/>
    <path class="cls-5" d="m17.14,8.83c-1.27.14-2.34.85-2.89,1.92-.34.65-.5,1.37-.57,2.43-.04.59-.02.66.14.66.22,0,1.14-.27,1.67-.49,1.19-.49,2.1-1.26,2.59-2.19.25-.47.42-1.14.46-1.77.02-.36,0-.45-.14-.5-.2-.07-.92-.1-1.26-.07"/>
    <path class="cls-5" d="m8.86,13.45c-.27.03-.33.06-.38.17-.09.27.08,1.32.32,1.87.41.98,1.21,1.74,2.45,2.33.56.27,1.45.55,1.92.62l.15.02.02-.11c.02-.14,0-.81-.06-1.22-.14-1.08-.55-2.06-1.08-2.61-.48-.49-1.28-.9-2-1.03-.29-.05-1.03-.08-1.34-.05"/>
    <path class="cls-5" d="m16.76,13.49c-.11.02-.3.07-.44.11-1.43.46-2.28,1.55-2.56,3.29-.07.41-.12,1.21-.1,1.41.02.14.02.15.11.15.13,0,.6-.12,1.02-.26.74-.24,1.15-.43,1.68-.77.82-.54,1.26-.99,1.6-1.66.3-.59.41-1.03.43-1.71.02-.52,0-.54-.19-.58-.2-.04-1.33-.03-1.56.01"/>
    <path class="cls-5" d="m8.92,18.04c-.12.02-.26.04-.32.06l-.11.03v.42c0,.67.14,1.22.43,1.8.25.5.5.83.86,1.13.87.73,1.89,1.23,3.09,1.5.36.08.42.09.44.06.03-.05.03-.28,0-.79-.07-.96-.23-1.65-.54-2.26-.19-.38-.35-.6-.65-.9-.51-.51-1.14-.84-1.92-1-.33-.07-.96-.1-1.28-.06"/>
    <path class="cls-5" d="m17,18.05c-.72.08-1.54.47-2.08.98-.63.6-1.03,1.49-1.18,2.67-.04.34-.09,1.18-.06,1.27.01.05.04.08.08.09.08.01.77-.17,1.27-.34.92-.31,1.79-.82,2.39-1.43.6-.6.95-1.35,1.09-2.34.08-.55.05-.82-.09-.88-.07-.03-1.21-.06-1.41-.03"/>
  </g>
  <line class="cls-1" x1="22.54" y1="4.46" x2="4.46" y2="22.54"/>
</svg>