<?xml version="1.0" encoding="UTF-8"?>
<svg id="Layer_1" data-name="Layer 1" xmlns="http://www.w3.org/2000/svg" xmlns:xlink="http://www.w3.org/1999/xlink" viewBox="0 0 27 27">
  <defs>
    <style>
      .cls-1 {
        stroke: #b2d235;
        stroke-width: 2px;
      }

      .cls-1, .cls-2, .cls-3 {
        fill: none;
      }

      .cls-4 {
        fill: #fffbeb;
      }

      .cls-3 {
        clip-path: url(#clippath);
      }

      .cls-5 {
        fill: #4f943e;
      }
    </style>
    <clipPath id="clippath">
      <rect class="cls-2" x="0" y="0" width="27" height="27"/>
    </clipPath>
  </defs>
  <g class="cls-3">
    <path class="cls-4" d="m13.5,26c6.9,0,12.5-5.6,12.5-12.5,0-6.9-5.6-12.5-12.5-12.5S1,6.6,1,13.5c0,6.9,5.6,12.5,12.5,12.5"/>
    <circle class="cls-1" cx="13.5" cy="13.5" r="12.5"/>
    <path class="cls-5" d="m13.5,4.39l-1.55,2.9c-.18.32-.49.29-.81.11l-1.12-.58.84,4.45c.18.81-.39.81-.67.46l-1.96-2.2-.32,1.12c-.04.15-.2.3-.44.26l-2.48-.52.65,2.37c.14.53.25.75-.14.89l-.89.42,4.27,3.47c.17.13.26.37.19.58l-.38,1.23c1.47-.17,2.79-.43,4.26-.58.13-.01.35.2.35.35l-.2,4.5h.72s-.11-4.49-.11-4.49c0-.15.2-.37.33-.36,1.47.16,2.79.41,4.26.58l-.37-1.23c-.06-.21.02-.45.19-.58l4.27-3.47-.89-.42c-.39-.14-.28-.36-.14-.89l.65-2.37-2.48.52c-.24.04-.4-.12-.44-.26l-.32-1.12-1.96,2.2c-.28.35-.85.35-.67-.46l.84-4.45-1.13.58c-.32.18-.63.2-.81-.11"/>
  </g>
</svg>