<?xml version="1.0" encoding="UTF-8"?>
<svg id="Layer_1" data-name="Layer 1" xmlns="http://www.w3.org/2000/svg" xmlns:xlink="http://www.w3.org/1999/xlink" viewBox="0 0 27 27">
  <defs>
    <style>
      .cls-1 {
        stroke: #b2d235;
        stroke-width: 2px;
      }

      .cls-1, .cls-2, .cls-3 {
        fill: none;
      }

      .cls-4 {
        fill: #fffbeb;
      }

      .cls-3 {
        clip-path: url(#clippath);
      }

      .cls-5 {
        fill: #4f943e;
      }
    </style>
    <clipPath id="clippath">
      <rect class="cls-2" x="0" y="0" width="27" height="27"/>
    </clipPath>
  </defs>
  <g class="cls-3">
    <path class="cls-4" d="m13.5,26c6.9,0,12.5-5.6,12.5-12.5,0-6.9-5.6-12.5-12.5-12.5-6.9,0-12.5,5.6-12.5,12.5,0,6.9,5.6,12.5,12.5,12.5"/>
    <circle class="cls-1" cx="13.5" cy="13.5" r="12.5"/>
    <path class="cls-5" d="m10.9,4.79c-.06.07-.13.17-.14.21-.03.12.09.32.24.4.07.03.13.08.14.1.01.02.03,1.33.03,2.9v2.86s-.1.24-.1.24c-.06.13-.82,1.76-1.69,3.62-1.95,4.17-2.26,4.85-2.4,5.28-.07.21-.07.27-.03.47.04.19.19.34.48.5l.2.11h5.04c5.37,0,6.69-.02,6.89-.09.17-.06.34-.18.41-.3.09-.15.13-.4.09-.57-.09-.38-.34-.92-3.75-8.22l-.5-1.06v-2.83c.02-1.56.03-2.86.04-2.9.01-.03.04-.06.07-.06.07,0,.2-.11.27-.21.1-.16.08-.26-.08-.42l-.13-.14h-2.49s-2.49,0-2.49,0l-.12.13Z"/>
    <path class="cls-4" d="m12.74,15.71c.41.09.63.35.63.75,0,.58-.55.92-1.08.67-.21-.1-.34-.25-.41-.46-.04-.13-.04-.18-.01-.32.06-.29.27-.54.51-.63.14-.05.17-.05.36-.01"/>
    <path class="cls-4" d="m15.13,17.06c.56.17.92.81.77,1.35-.1.37-.39.64-.78.75-.51.14-1.04-.1-1.27-.55-.08-.15-.09-.19-.09-.47s0-.32.08-.46c.15-.31.37-.49.7-.61.19-.07.37-.06.59,0"/>
    <path class="cls-4" d="m12.35,18.23c.18.09.31.24.41.45.06.13.07.18.06.36-.02.33-.17.57-.46.73-.14.07-.18.08-.4.08s-.27-.01-.39-.08c-.29-.15-.45-.41-.47-.72-.01-.22.02-.36.15-.56.16-.25.41-.36.75-.35.15,0,.24.03.35.08"/>
  </g>
  <line class="cls-1" x1="22.54" y1="4.46" x2="4.46" y2="22.54"/>
</svg>