<?xml version="1.0" encoding="UTF-8"?>
<svg id="Layer_1" data-name="Layer 1" xmlns="http://www.w3.org/2000/svg" xmlns:xlink="http://www.w3.org/1999/xlink" viewBox="0 0 27 27">
  <defs>
    <style>
      .cls-1 {
        clip-path: url(#clippath-2);
      }

      .cls-1, .cls-2, .cls-3, .cls-4, .cls-5 {
        fill: none;
      }

      .cls-2 {
        stroke: #b2d235;
        stroke-width: 2px;
      }

      .cls-6 {
        fill: #fffbeb;
      }

      .cls-4 {
        clip-path: url(#clippath);
      }

      .cls-5 {
        clip-path: url(#clippath-1);
      }

      .cls-7 {
        fill: #4f943e;
      }
    </style>
    <clipPath id="clippath">
      <rect class="cls-3" x="0" y="0" width="27" height="27"/>
    </clipPath>
    <clipPath id="clippath-1">
      <path class="cls-3" d="m13.5,26c6.9,0,12.5-5.6,12.5-12.5S20.4,1,13.5,1,1,6.6,1,13.5s5.6,12.5,12.5,12.5"/>
    </clipPath>
    <clipPath id="clippath-2">
      <rect class="cls-3" x="0" y="0" width="27" height="27"/>
    </clipPath>
  </defs>
  <g class="cls-4">
    <path class="cls-6" d="m13.5,26c6.9,0,12.5-5.6,12.5-12.5S20.4,1,13.5,1,1,6.6,1,13.5s5.6,12.5,12.5,12.5"/>
  </g>
  <g class="cls-5">
    <path class="cls-7" d="m12.15,2.45l-.32.94c-.17.52-.47,1.37-.66,1.89-.38,1.07-.58,1.67-.72,2.25-.18.73-.2.95-.2,1.72,0,.67,0,.73.1,1.17.13.61.25.98.49,1.47.33.68.76,1.25,1.36,1.83.5.48.87.75,1.87,1.33.14.08.28.18.3.22.09.14.25,1.33.34,2.56.04.56.11,2.11.11,2.49v.12l-.32-.26c-.31-.25-.8-.63-1.3-.99-.13-.09-.47-.33-.75-.52l-.52-.35-.07-.2c-.31-.86-.41-1.1-.63-1.54-.62-1.26-1.32-2.02-2.34-2.53-.61-.3-1.12-.44-2.23-.6-1.38-.2-1.9-.33-2.52-.64-.18-.09-.33-.15-.33-.15-.02.01.64,1.96.82,2.43.45,1.17.79,1.75,1.37,2.33.6.61,1.4,1.05,2.33,1.29.96.25,1.79.3,3.05.15l.32-.04.24.2c.14.11.83.78,1.54,1.48l1.29,1.28-.02.45c-.05,1.15-.22,2.97-.37,4.25h1.62c0-.27.01-.55.02-.84l.03-1.45.35-.82c.52-1.21.76-1.71,1.35-2.89l.53-1.06.43-.15c.53-.18.76-.27,1.13-.47,1.45-.78,2.48-2.09,2.79-3.53.11-.53.14-.9.12-1.73-.02-.99-.15-2.09-.39-3.31-.09-.47-.12-.54-.14-.36-.02.18-.36.84-.55,1.1-.23.3-.64.67-1.34,1.21-1.2.93-1.6,1.34-2,2.06-.32.57-.65,1.44-.74,1.94-.05.31-.06,1.78-.01,2.09.02.1.09.36.16.58l.13.39-.29.45c-.69,1.08-1.55,2.34-1.58,2.31,0,0-.04-.34-.06-.75-.13-2.01-.3-3.37-.66-5.2l-.18-.91.16-.18c.33-.38.7-1.01.9-1.53.24-.63.36-1.27.38-2.12.05-1.69-.34-2.98-1.28-4.14-.24-.29-.47-.56-1.07-1.22-.82-.91-1.3-1.56-1.58-2.13-.12-.24-.24-.61-.4-1.15l-.06-.2Z"/>
  </g>
  <g class="cls-1">
    <circle class="cls-2" cx="13.5" cy="13.5" r="12.5"/>
  </g>
</svg>