<?xml version="1.0" encoding="UTF-8"?>
<svg id="Layer_1" data-name="Layer 1" xmlns="http://www.w3.org/2000/svg" xmlns:xlink="http://www.w3.org/1999/xlink" viewBox="0 0 27 27">
  <defs>
    <style>
      .cls-1 {
        stroke: #b2d235;
        stroke-width: 2px;
      }

      .cls-1, .cls-2, .cls-3 {
        fill: none;
      }

      .cls-4 {
        fill: #fff;
      }

      .cls-5 {
        fill: #fffbeb;
      }

      .cls-3 {
        clip-path: url(#clippath);
      }

      .cls-6 {
        fill: #4f943e;
      }
    </style>
    <clipPath id="clippath">
      <rect class="cls-2" x="-.09" y="0" width="27.17" height="27"/>
    </clipPath>
  </defs>
  <g class="cls-3">
    <path class="cls-5" d="m13.5,26c6.9,0,12.5-5.6,12.5-12.5S20.4,1,13.5,1c-6.9,0-12.5,5.6-12.5,12.5s5.6,12.5,12.5,12.5"/>
    <circle class="cls-1" cx="13.5" cy="13.5" r="12.5"/>
  </g>
  <rect class="cls-4" x="11.61" y="10.5" width="6.78" height="4.62"/>
  <g>
    <path class="cls-6" d="m10.05,17.67l.02-5.98h-.03l-1.56,5.98h-1.03l-1.53-5.98h-.03l.02,5.98h-1.2v-7.79h1.77l1.5,5.7h.04l1.46-5.7h1.86v7.79h-1.29Z"/>
    <path class="cls-6" d="m15.96,11.39c-.29-.34-.64-.52-1.08-.52-.12,0-.25.02-.36.06-.12.04-.22.1-.32.19s-.17.2-.23.34c-.05.14-.08.3-.08.5,0,.33.1.58.3.76s.46.35.78.51c.19.1.38.21.58.33.2.12.38.27.54.45.16.18.29.38.4.63.1.24.15.53.15.86,0,.38-.06.72-.18,1.01s-.28.54-.48.74c-.2.2-.44.35-.71.46-.27.1-.56.15-.86.15-.43,0-.83-.08-1.2-.25-.37-.17-.66-.38-.88-.64l.71-.97c.17.21.37.37.61.48.24.12.48.18.73.18.28,0,.51-.1.69-.29s.28-.46.28-.8-.11-.6-.33-.8c-.22-.2-.5-.38-.84-.55-.21-.1-.41-.22-.6-.34-.19-.12-.35-.27-.5-.45-.14-.17-.26-.37-.34-.6s-.13-.51-.13-.83c0-.4.06-.75.19-1.04.13-.29.3-.53.51-.72.21-.19.45-.33.71-.42.26-.09.53-.14.8-.14.4,0,.75.06,1.06.19.31.13.57.32.79.57l-.73.95Z"/>
    <path class="cls-6" d="m21.63,17.66c-.33.12-.72.18-1.17.18s-.88-.1-1.24-.29c-.37-.19-.68-.47-.93-.83s-.45-.79-.58-1.29c-.14-.5-.2-1.05-.2-1.66s.07-1.14.2-1.64c.13-.5.32-.93.57-1.29.25-.36.55-.65.9-.85s.75-.3,1.19-.3c.46,0,.86.08,1.2.25.34.16.61.4.83.7l-.76.92c-.29-.42-.69-.64-1.19-.64-.27,0-.51.08-.71.23-.2.15-.37.36-.5.62s-.23.56-.3.91c-.07.34-.1.71-.1,1.09s.03.77.1,1.12c.07.35.17.65.3.91.13.26.3.46.5.61.2.15.44.22.72.22.18,0,.33-.02.48-.06.14-.04.26-.09.35-.16v-2.01h-.95v-1.14h2.14v3.95c-.23.19-.51.34-.84.46Z"/>
  </g>
  <line class="cls-1" x1="22.54" y1="4.46" x2="4.46" y2="22.54"/>
</svg>