<?xml version="1.0" encoding="UTF-8"?>
<svg id="Layer_1" data-name="Layer 1" xmlns="http://www.w3.org/2000/svg" xmlns:xlink="http://www.w3.org/1999/xlink" viewBox="0 0 27 27">
  <defs>
    <style>
      .cls-1 {
        stroke: #b2d235;
        stroke-width: 2px;
      }

      .cls-1, .cls-2, .cls-3 {
        fill: none;
      }

      .cls-4 {
        fill: #fffbeb;
      }

      .cls-3 {
        clip-path: url(#clippath);
      }

      .cls-5 {
        fill: #4f943e;
      }
    </style>
    <clipPath id="clippath">
      <rect class="cls-2" x="0" y="0" width="27" height="27"/>
    </clipPath>
  </defs>
  <g class="cls-3">
    <path class="cls-4" d="m13.5,26c6.9,0,12.5-5.6,12.5-12.5S20.4,1,13.5,1,1,6.6,1,13.5s5.6,12.5,12.5,12.5"/>
    <circle class="cls-1" cx="13.5" cy="13.5" r="12.5"/>
    <path class="cls-5" d="m6.62,6.31c-.13.23-.35.99-.53,1.92-.16.8-.18,1.06-.19,1.97,0,.95.01,1.03.22,1.52.15.35.37.7.75,1.22.29.4.59.83.7,1.03.09.16.26.61.54,1.44.4,1.18.59,1.53,1.19,2.14.47.48.81.74,1.59,1.2.58.34.69.43,1.44,1.24.32.35.71.74.85.87.76.67,1.53,1.02,2.38,1.09.43.03,1.39.03,1.81,0,.52-.04,1.08-.17,1.18-.29.06-.07.04-.12-.22-.52-.37-.57-.39-.62-.43-1.24-.08-1.13-.29-1.6-.94-2.11-.29-.23-.42-.31-1.01-.63-.89-.48-1.16-.69-1.37-1.05-.06-.11-.11-.21-.1-.22,0,0,.15,0,.32.03.17.02.51.07.77.1.74.09.83.11,2.01.64,1.44.64,2.38.77,3.46.44.6-.18,1.6-.64,2.12-.99.25-.16.54-.42.59-.51.04-.07-.11-.22-.4-.39-.5-.3-.63-.45-.95-1.05-.3-.57-.52-.85-.85-1.09-.5-.35-.93-.47-2.05-.56-.31-.02-.68-.06-.84-.08-.52-.07-.79-.26-1.41-.97-.54-.61-.86-.88-1.32-1.11-.28-.14-.53-.21-1.13-.31-.7-.12-.9-.17-1.18-.31-.3-.16-.61-.46-1.11-1.1-.53-.67-.78-.96-1.06-1.2-.59-.51-1.02-.63-2.37-.63-.72,0-1.29-.04-1.48-.09-.15-.05-.31-.14-.62-.36-.12-.09-.25-.16-.27-.16-.03,0-.08.05-.12.11"/>
    <path class="cls-4" d="m8.82,8.72c.63.23,1.11.79,1.35,1.56.07.22.07.28.07.64,0,.36,0,.42-.07.62-.22.69-.73,1.09-1.36,1.09-.44,0-.94-.23-1.3-.59-.3-.31-.52-.72-.62-1.17-.06-.25-.06-.82,0-1.08.12-.57.52-1.01,1.04-1.14.23-.06.63-.03.89.07"/>
    <path class="cls-4" d="m11.14,13.59c.3.06.55.16.76.29.55.35.97.91,1.12,1.47.06.25.08.69.03.93-.12.57-.55,1.02-1.12,1.16-.2.05-.66.04-.87-.01-.79-.22-1.48-.89-1.74-1.71-.08-.27-.1-.69-.04-.95.14-.61.61-1.08,1.2-1.2.26-.05.35-.05.66.01"/>
    <path class="cls-4" d="m15.31,17.72c.33.09.75.34,1.03.63.34.34.54.77.57,1.19.05.67-.31,1.19-.96,1.38-.23.07-.7.06-1.01-.01-.7-.17-1.34-.73-1.57-1.39-.05-.15-.06-.23-.06-.54s0-.39.06-.51c.07-.17.19-.33.35-.47.13-.1.49-.3.61-.32.13-.03.81.01.97.05"/>
  </g>
  <line class="cls-1" x1="22.54" y1="4.46" x2="4.46" y2="22.54"/>
</svg>